<?xml version="1.0" encoding="UTF-8"?>
<svg id="Layer_1" data-name="Layer 1" xmlns="http://www.w3.org/2000/svg" viewBox="0 0 260 260">
  <defs>
    <style>
      .cls-1 {
        stroke: #d4d4d3;
        stroke-linecap: round;
        stroke-linejoin: round;
      }

      .cls-1, .cls-2 {
        fill: none;
      }

      .cls-3 {
        fill: #fafafa;
        stroke: #262626;
        stroke-width: 10px;
      }

      .cls-3, .cls-2 {
        stroke-miterlimit: 10;
      }

      .cls-2 {
        stroke: #44b65e;
        stroke-dasharray: 0 0 9.91 3.97;
        stroke-width: 3px;
      }

      .cls-4 {
        fill: #fb923c;
      }

      .cls-4, .cls-5, .cls-6, .cls-7, .cls-8 {
        stroke-width: 0px;
      }

      .cls-5 {
        fill: #262626;
      }

      .cls-6 {
        fill: #d4d4d3;
      }

      .cls-7 {
        fill: #86efac;
      }

      .cls-8 {
        fill: #f4f5f5;
      }
    </style>
  </defs>
  <rect class="cls-3" x="21.66" y="25" width="216.69" height="219.93" rx="30.44" ry="30.44"/>
  <path class="cls-5" d="M37.08,26.08h186.32c6.45,0,11.69,5.24,11.69,11.69v23.19H25.39v-23.19c0-6.45,5.24-11.69,11.69-11.69Z"/>
  <g>
    <rect class="cls-7" x="33.08" y="139.86" width="133.4" height="48.68" rx="10" ry="10"/>
    <rect class="cls-2" x="33.08" y="139.86" width="133.4" height="48.68" rx="10" ry="10"/>
  </g>
  <g>
    <rect class="cls-8" x="75.94" y="104.74" width="153.9" height="57.28" rx="10" ry="10"/>
    <rect class="cls-6" x="97.79" y="113.11" width="104.02" height="8.23" rx="2" ry="2"/>
    <rect class="cls-6" x="97.79" y="129.26" width="44.05" height="8.23" rx="2" ry="2"/>
    <rect class="cls-6" x="157.4" y="129.26" width="44.05" height="8.23" rx="2" ry="2"/>
    <rect class="cls-6" x="97.79" y="144.96" width="44.05" height="8.23" rx="2" ry="2"/>
    <line class="cls-1" x1="149.8" y1="129.26" x2="149.8" y2="137.49"/>
    <path class="cls-4" d="M84.49,104.74h3.84v57.28h-3.84c-4.72,0-8.55-3.83-8.55-8.55v-40.18c0-4.72,3.83-8.55,8.55-8.55Z"/>
  </g>
  <rect class="cls-5" x="63.49" y="2.32" width="21.75" height="36.43" rx="8.51" ry="8.51"/>
  <path class="cls-5" d="M183.26,2.32h4.67c4.74,0,8.59,3.85,8.59,8.59v19.25c0,4.74-3.85,8.59-8.59,8.59h-4.57c-4.74,0-8.59-3.85-8.59-8.59V10.82c0-4.69,3.81-8.49,8.49-8.49Z"/>
</svg>