<svg width="16" height="16" viewBox="0 0 16 16" fill="none" xmlns="http://www.w3.org/2000/svg">
<rect x="0.5" y="0.5" width="15" height="15" rx="3.5" fill="url(#paint0_linear_6_25)" stroke="#CA8A04"/>
<g style="mix-blend-mode:overlay">
<rect x="2.375" y="3.375" width="9.25" height="6.25" rx="1.625" fill="white" fill-opacity="0.25"/>
<rect x="2.375" y="3.375" width="9.25" height="6.25" rx="1.625" stroke="white" stroke-width="0.75"/>
</g>
<g style="mix-blend-mode:overlay">
<path fill-rule="evenodd" clip-rule="evenodd" d="M12 7.75C12.1709 7.75 12.3319 7.78387 12.4783 7.84456L12.6219 7.49816L12.7656 7.15176C12.5298 7.05397 12.2712 7 12 7V7.75ZM5.37807 12.5018L5.23442 12.8482C5.47024 12.946 5.72882 13 6 13H6.75V12.625V12.25H6C5.82913 12.25 5.66806 12.2161 5.52171 12.1554L5.37807 12.5018ZM11.25 12.625V13H12C12.2712 13 12.5298 12.946 12.7656 12.8482L12.6219 12.5018L12.4783 12.1554C12.3319 12.2161 12.1709 12.25 12 12.25H11.25V12.625ZM13.625 9.5H14V9C14 8.72882 13.946 8.47024 13.8482 8.23442L13.5018 8.37807L13.1554 8.52171C13.2161 8.66806 13.25 8.82913 13.25 9V9.5H13.625ZM4.375 10.5H4V11C4 11.2712 4.05397 11.5298 4.15176 11.7656L4.49816 11.6219L4.84456 11.4783C4.78387 11.3319 4.75 11.1709 4.75 11V10.5H4.375ZM13.625 10.5H14V11C14 11.2712 13.946 11.5298 13.8482 11.7656L13.5018 11.6219L13.1554 11.4783C13.2161 11.3319 13.25 11.1709 13.25 11V10.5H13.625ZM9.75 12.625V13H8.25V12.625V12.25H9.75V12.625Z" fill="white"/>
</g>
<defs>
<linearGradient id="paint0_linear_6_25" x1="8" y1="0" x2="8" y2="16" gradientUnits="userSpaceOnUse">
<stop stop-color="#CA8A04"/>
<stop offset="1" stop-color="#713F12"/>
</linearGradient>
</defs>
</svg>
